<svg xmlns="http://www.w3.org/2000/svg" width="79.916" height="87.181" viewBox="0 0 79.916 87.181">
  <g id="pin" transform="translate(-21.333)">
    <g id="Group_1" data-name="Group 1" transform="translate(21.333)">
      <path id="Path_1" data-name="Path 1" d="M70.179,62.059,83.673,37.5a25.428,25.428,0,1,0-44.757.011L52.4,62.059c-11.909.756-31.07,3.374-31.07,12.408,0,12.357,35.868,12.714,39.958,12.714s39.958-.357,39.958-12.714C101.249,65.433,82.088,62.815,70.179,62.059ZM46.761,25.428a14.53,14.53,0,1,1,14.53,14.53A14.547,14.547,0,0,1,46.761,25.428Zm14.53,54.488c-17.859,0-29.571-3.265-32.315-5.449,2.477-1.971,12.282-4.816,27.3-5.352L59.7,75.341a1.815,1.815,0,0,0,3.182,0L66.3,69.115c15.021.536,24.826,3.381,27.3,5.352C90.862,76.65,79.15,79.916,61.291,79.916Z" transform="translate(-21.333)" fill="#fff"/>
    </g>
  </g>
</svg>
